/* XPM */
static char * dialog_ok_apply_xpm[] = {
"36 36 206 2",
"  	c None",
". 	c #659F3E",
"+ 	c #A6D272",
"@ 	c #D0F396",
"# 	c #9BC96F",
"$ 	c #79B346",
"% 	c #D7F99D",
"& 	c #C2F371",
"* 	c #C7F47B",
"= 	c #CAEF90",
"- 	c #AED87C",
"; 	c #4C8F27",
"> 	c #468B20",
", 	c #BAE387",
"' 	c #C0F174",
") 	c #BBF06A",
"! 	c #BBF06B",
"~ 	c #C9F583",
"{ 	c #BDE785",
"] 	c #387C17",
"^ 	c #88BF59",
"/ 	c #C1EE80",
"( 	c #B4ED62",
"_ 	c #B6ED65",
": 	c #B6ED64",
"< 	c #B5ED64",
"[ 	c #C4F47C",
"} 	c #84BC54",
"| 	c #A5D86C",
"1 	c #B3EB64",
"2 	c #B0E95E",
"3 	c #B2EA61",
"4 	c #AFDF72",
"5 	c #6BA93B",
"6 	c #BEF079",
"7 	c #AAE758",
"8 	c #AAE757",
"9 	c #B3E968",
"0 	c #80B952",
"a 	c #3F8819",
"b 	c #B5E778",
"c 	c #A8E658",
"d 	c #A4E451",
"e 	c #A5E453",
"f 	c #AEDF75",
"g 	c #539828",
"h 	c #86C151",
"i 	c #AEE668",
"j 	c #9EE04B",
"k 	c #9FE14C",
"l 	c #9DE04A",
"m 	c #B4E970",
"n 	c #77B545",
"o 	c #61A62F",
"p 	c #ACE071",
"q 	c #98DC46",
"r 	c #99DD48",
"s 	c #99DC48",
"t 	c #A0E053",
"u 	c #A0D765",
"v 	c #307A0D",
"w 	c #79B647",
"x 	c #9CDC53",
"y 	c #94D844",
"z 	c #94D845",
"A 	c #94D945",
"B 	c #A5E061",
"C 	c #519527",
"D 	c #478D1F",
"E 	c #A0DA5E",
"F 	c #91D542",
"G 	c #90D541",
"H 	c #90D440",
"I 	c #94D747",
"J 	c #80BC4D",
"K 	c #7EBD45",
"L 	c #97D74F",
"M 	c #8AD03C",
"N 	c #8AD03D",
"O 	c #8AD03B",
"P 	c #98D458",
"Q 	c #3F881A",
"R 	c #74B441",
"S 	c #519725",
"T 	c #539A26",
"U 	c #9FD95E",
"V 	c #85CC38",
"W 	c #84CC37",
"X 	c #8ED146",
"Y 	c #87C250",
"Z 	c #74B541",
"` 	c #88CD42",
" .	c #91CF54",
"..	c #63A732",
"+.	c #8CC855",
"@.	c #83CB3B",
"#.	c #7FC935",
"$.	c #80C935",
"%.	c #80CA36",
"&.	c #99D55C",
"*.	c #3B8417",
"=.	c #589E2B",
"-.	c #8CCF49",
";.	c #7AC631",
">.	c #8FD050",
",.	c #69AE34",
"'.	c #2E780E",
").	c #519927",
"!.	c #87CA47",
"~.	c #79C530",
"{.	c #7AC632",
"].	c #7AC531",
"^.	c #88CD45",
"/.	c #60A630",
"(.	c #4E9724",
"_.	c #88CA49",
":.	c #75C22E",
"<.	c #75C12D",
"[.	c #85CA44",
"}.	c #77BA40",
"|.	c #408A19",
"1.	c #337D11",
"2.	c #77BB40",
"3.	c #78C331",
"4.	c #75C12E",
"5.	c #76C230",
"6.	c #7CC042",
"7.	c #398315",
"8.	c #247206",
"9.	c #7AC237",
"0.	c #6FBD28",
"a.	c #71BE2A",
"b.	c #70BD29",
"c.	c #76C132",
"d.	c #7EC144",
"e.	c #45901B",
"f.	c #519821",
"g.	c #80C63F",
"h.	c #71BD29",
"i.	c #7AC137",
"j.	c #549A28",
"k.	c #358110",
"l.	c #72B53B",
"m.	c #76BE34",
"n.	c #6CBA26",
"o.	c #6BB925",
"p.	c #6BBA25",
"q.	c #6EBB2A",
"r.	c #81C444",
"s.	c #80C344",
"t.	c #6DBB29",
"u.	c #6CB926",
"v.	c #79BC41",
"w.	c #2E790C",
"x.	c #579F28",
"y.	c #73BB36",
"z.	c #65B522",
"A.	c #65B421",
"B.	c #64B521",
"C.	c #65B521",
"D.	c #65B422",
"E.	c #64B420",
"F.	c #78BF3A",
"G.	c #4B941F",
"H.	c #49961F",
"I.	c #74BB3B",
"J.	c #5FB022",
"K.	c #5DAF1F",
"L.	c #63B227",
"M.	c #5FA92D",
"N.	c #3A8715",
"O.	c #63AD33",
"P.	c #58AA22",
"Q.	c #55A81D",
"R.	c #55A81E",
"S.	c #63AF30",
"T.	c #348013",
"U.	c #338214",
"V.	c #54A12A",
"W.	c #56A826",
"X.	c #4DA21A",
"Y.	c #4DA21B",
"Z.	c #51A520",
"`.	c #489522",
" +	c #227109",
".+	c #449521",
"++	c #51A427",
"@+	c #459D19",
"#+	c #449C18",
"$+	c #51A229",
"%+	c #398918",
"&+	c #3C8D1D",
"*+	c #479B22",
"=+	c #3E9717",
"-+	c #3D9616",
";+	c #439A1D",
">+	c #419121",
",+	c #2F7F15",
"'+	c #409721",
")+	c #3A9318",
"!+	c #439824",
"~+	c #1F6C08",
"{+	c #1F6C0A",
"]+	c #38911E",
"^+	c #267811",
"/+	c #145C03",
"                                                                        ",
"                                                                        ",
"                                                                        ",
"                                                                        ",
"                                                                        ",
"                                                                        ",
"                                                  .                     ",
"                                                + @ #                   ",
"                                              $ % & * = - ;             ",
"                                            > , ' ) ! ) ~ { ]           ",
"                                            ^ / ( _ : < [ }             ",
"                                            | 1 2 2 2 3 4               ",
"                                          5 6 7 7 7 8 9 0               ",
"                                        a b c d d d e f g               ",
"                                        h i j k k l m n                 ",
"                                      o p q r s s t u v                 ",
"                                      w x y z A A B C                   ",
"                                    D E F G H H I J                     ",
"                                    K L M N M O P                       ",
"              Q R S               T U V V V W X Y                       ",
"              Z `  ...            +.@.#.$.$.%.&.*.                      ",
"            =.-.;.;.>.,.'.      ).!.~.{.{.].^./.                        ",
"          (._.:.<.<.<.[.}.|.  1.2.3.4.:.:.5.6.7.                        ",
"        8.}.9.0.a.a.b.b.c.d.e.f.g.h.a.a.b.i.j.                          ",
"          k.l.m.n.o.p.p.o.q.r.s.t.o.p.o.u.v.                            ",
"            w.x.y.z.A.z.z.A.B.C.D.z.z.E.F.G.                            ",
"                H.I.J.K.K.K.K.K.K.K.K.L.M.                              ",
"                  N.O.P.Q.R.R.R.R.R.R.S.T.                              ",
"                    U.V.W.X.Y.Y.Y.Y.Z.`.                                ",
"                       +.+++@+@+@+#+$+%+                                ",
"                          &+*+=+-+;+>+                                  ",
"                            ,+'+)+!+~+                                  ",
"                              {+]+^+                                    ",
"                                /+                                      ",
"                                                                        ",
"                                                                        "};
