/* XPM */
static char * document_properties_xpm[] = {
"36 36 97 2",
"  	c None",
". 	c #C7C7C7",
"+ 	c #CECECE",
"@ 	c #CDCDCD",
"# 	c #C6C6C6",
"$ 	c #A4A4A4",
"% 	c #F7F7F7",
"& 	c #F5F5F5",
"* 	c #A3A3A3",
"= 	c #F3F3F3",
"- 	c #AAAAAA",
"; 	c #C8C8C8",
"> 	c #A8A8A8",
", 	c #A1A1A1",
"' 	c #AEAEAE",
") 	c #F6F6F6",
"! 	c #F2F2F2",
"~ 	c #CBCBCB",
"{ 	c #F1F1F1",
"] 	c #F0F0F0",
"^ 	c #C9C9C9",
"/ 	c #A6A6A6",
"( 	c #B2B2B2",
"_ 	c #DDDDDD",
": 	c #EBEBEB",
"< 	c #B3B3B3",
"[ 	c #C4C4C4",
"} 	c #F4F4F4",
"| 	c #E3E3E3",
"1 	c #EFEFEF",
"2 	c #E9E9E9",
"3 	c #E8E8E8",
"4 	c #A9A9A9",
"5 	c #EEEEEE",
"6 	c #DBDBDB",
"7 	c #C5C5C5",
"8 	c #C3C3C3",
"9 	c #A0A0A0",
"0 	c #EDEDED",
"a 	c #BEBEBE",
"b 	c #DADADA",
"c 	c #DEDEDE",
"d 	c #E0E0E0",
"e 	c #E1E1E1",
"f 	c #BFBFBF",
"g 	c #ECECEC",
"h 	c #A7A7A7",
"i 	c #E5E5E5",
"j 	c #E4E4E4",
"k 	c #B9B9B9",
"l 	c #D4D4D4",
"m 	c #D5D5D5",
"n 	c #BABABA",
"o 	c #ABABAB",
"p 	c #E7E7E7",
"q 	c #D8D8D8",
"r 	c #DFDFDF",
"s 	c #E6E6E6",
"t 	c #AFAFAF",
"u 	c #E2E2E2",
"v 	c #B1B1B1",
"w 	c #DCDCDC",
"x 	c #9D9D9D",
"y 	c #949494",
"z 	c #B8B8B8",
"A 	c #CCCCCC",
"B 	c #BDBDBD",
"C 	c #939393",
"D 	c #D7D7D7",
"E 	c #D3D3D3",
"F 	c #D6D6D6",
"G 	c #929292",
"H 	c #D9D9D9",
"I 	c #D1D1D1",
"J 	c #D0D0D0",
"K 	c #919191",
"L 	c #9F9F9F",
"M 	c #9E9E9E",
"N 	c #D2D2D2",
"O 	c #ADADAD",
"P 	c #A2A2A2",
"Q 	c #B5B5B5",
"R 	c #CACACA",
"S 	c #9C9C9C",
"T 	c #B4B4B4",
"U 	c #979797",
"V 	c #CFCFCF",
"W 	c #909090",
"X 	c #969696",
"Y 	c #BBBBBB",
"Z 	c #959595",
"` 	c #8E8E8E",
" .	c #8C8C8C",
"..	c #888888",
"+.	c #898989",
"@.	c #8B8B8B",
"#.	c #878787",
"                                                                        ",
"                              . + @ @ + #                               ",
"                            $ % & & & & % $                             ",
"                            * % = = = = % *                             ",
"              - ; # >     , ' ) ! ! ! ! ) ' ,     > # ; -               ",
"            - ~ { ] ^ / ( _ : { { { { { { : _ < / ^ ] { ~ -             ",
"          > [ } ] ] ] | } { 1 : 2 3 3 2 : 1 { } | ] ] ] } [ 4           ",
"        $ ^ ! 5 5 5 1 ] ] 6 ^ 7 [ 8 8 8 7 ^ 6 ] ] 1 5 5 5 ! ^ $         ",
"        9 | 0 0 0 0 5 : a 8 b c d e e d c b [ f g 5 0 0 0 0 | 9         ",
"          h i 0 0 0 j k l j e e e e e e e e j m n j 0 0 0 i h           ",
"            o 3 g p 8 q e r d d d d d d d d r e q 8 s g 3 o             ",
"            t 0 0 [ l c c c c r e u u e r c c c c l 7 0 0 v             ",
"          , w : q # r _ _ _ w @ ' x x t @ w _ _ _ r # b : 6 9           ",
"      y   / 0 2 8 w _ _ _ w z             z w _ _ _ 6 [ 2 g /   y       ",
"    # r _ e 3 r A w 6 6 6 B                 B 6 6 6 w A r 3 e _ r #     ",
"  C _ s s s s D E b b b F 4                 - F b b b l q s s s s _ C   ",
"  G 6 j j j i m l H q q I                     I q q H m F i j j j 6 G   ",
"  G 6 j j j j F m q q q J y                 y J q q q m F j j j j 6 G   ",
"  K b | | | | q l D D D J L                 M J D D D l H | | | | b K   ",
"  G N p s i e w E F F F m O                 O m F F F l w e i s p N y   ",
"    P 9 L Q u r E m m m m R x             x R m m m m E r u Q L 9 ,     ",
"          y e e D E m m m D R x S     x x ~ F m m m m q e d y           ",
"            n u c F l E l E m E a T T a E m E l E l D c u n             ",
"            x q _ 6 F N N N N N E E E E N N N N N F w _ q M             ",
"          U t _ w w w m I I I I I I I I I I I I F w w w _ ' U           ",
"        C T c 6 6 6 6 _ 6 l V V J J J J V V E 6 _ 6 6 6 6 c T y         ",
"        W N b b b b b b 6 r c D N J J N D c r 6 b b b b b b N W         ",
"          U l b H H H D b H b c e | | e r b H b D H H H b l U           ",
"            X @ q q ^ 4 Y F b D D D D D D b D Y 4 ^ q q @ X             ",
"              Z N I W     Z O H D D D D H O Z     W I N Z               ",
"                `  .        ..b F F F F b ..         .`                 ",
"                            +.b l l l l b +.                            ",
"                            @.A q D D q ~ @.                            ",
"                              +.#.#.#.#.+.                              ",
"                                                                        ",
"                                                                        "};
