/* XPM */
static char * go_down_xpm[] = {
"16 16 49 1",
" 	c None",
".	c #79B04D",
"+	c #78AF4C",
"@	c #75AD47",
"#	c #C6F57C",
"$	c #C3F376",
"%	c #6DAA3E",
"&	c #B7ED68",
"*	c #B3EB62",
"=	c #68A737",
"-	c #ABE85B",
";	c #A7E655",
">	c #61A331",
",	c #A0E151",
"'	c #9CDF4B",
")	c #5CA02D",
"!	c #96D949",
"~	c #92D642",
"{	c #539829",
"]	c #539A27",
"^	c #61A630",
"/	c #8BD140",
"(	c #87CF3B",
"_	c #539928",
":	c #77B842",
"<	c #82C93C",
"[	c #80C938",
"}	c #7CC733",
"|	c #7CC632",
"1	c #78B942",
"2	c #6CB037",
"3	c #73C02D",
"4	c #71BF2A",
"5	c #71BF2B",
"6	c #5BA429",
"7	c #68B725",
"8	c #66B623",
"9	c #5AA329",
"0	c #5CA82A",
"a	c #57AA1F",
"b	c #56A91E",
"c	c #5CA82B",
"d	c #479821",
"e	c #469E19",
"f	c #479E19",
"g	c #479621",
"h	c #3B921C",
"i	c #3A911B",
"j	c #226E11",
"     .++++.     ",
"    @#$$$$#@    ",
"    %&****&%    ",
"    =-;;;;-=    ",
"    >,'''',>    ",
"    )!~~~~!)    ",
"  {]^/((((/^]_  ",
"  :<[}||||}[<1  ",
"   2345555432   ",
"    67888879    ",
"     0abbac     ",
"      defg      ",
"       hi       ",
"       j        ",
"                ",
"                "};
