/* XPM */
static char * go_up_xpm[] = {
"16 16 50 1",
" 	c None",
".	c #B5E278",
"+	c #B2E077",
"@	c #8AC156",
"#	c #B8EE69",
"$	c #87BF54",
"%	c #9BD165",
"&	c #ACE85C",
"*	c #A9E757",
"=	c #9ACF64",
"-	c #7FBC4B",
";	c #9FDF51",
">	c #9EE04B",
",	c #9EE04C",
"'	c #7EBB49",
")	c #6CAB3F",
"!	c #96D84C",
"~	c #93D843",
"{	c #93D743",
"]	c #96D74D",
"^	c #6BAA3E",
"/	c #8FD146",
"(	c #88D03A",
"_	c #88CF3B",
":	c #88D03C",
"<	c #8FD248",
"[	c #6BAB3C",
"}	c #6EB03B",
"|	c #78BA40",
"1	c #81C938",
"2	c #7EC733",
"3	c #6BAC3C",
"4	c #47901D",
"5	c #77C231",
"6	c #72C02C",
"7	c #458E1C",
"8	c #6BB829",
"9	c #67B623",
"0	c #3C8818",
"a	c #5BAC23",
"b	c #57AA1E",
"c	c #338114",
"d	c #4BA01E",
"e	c #479D1A",
"f	c #2A7911",
"g	c #3A9318",
"h	c #369114",
"i	c #1D6C0C",
"j	c #2B7F18",
"k	c #2B7E18",
"                ",
"       .+       ",
"      @##$      ",
"     %&**&=     ",
"    -;>,,>;'    ",
"   )!~{{{{~]^   ",
"   /(_::::_(<   ",
"  [}|122221|}3  ",
"    45666654    ",
"    78999987    ",
"    0abbbba0    ",
"    cdeeeedc    ",
"    fghhhhgf    ",
"    ijkkkkji    ",
"                ",
"                "};
