/* XPM */
static char * help_info_xpm[] = {
"36 36 403 2",
"  	c None",
". 	c #5298C4",
"+ 	c #559CC7",
"@ 	c #76B8D9",
"# 	c #81BEDD",
"$ 	c #86BFDD",
"% 	c #81BEDC",
"& 	c #76B7D9",
"* 	c #569BC7",
"= 	c #5299C5",
"- 	c #5399C4",
"; 	c #79BCDD",
"> 	c #98D4EE",
", 	c #8CD3EE",
"' 	c #7BCFEE",
") 	c #72CDEE",
"! 	c #6ECCED",
"~ 	c #8BD3EE",
"{ 	c #78BCDD",
"] 	c #5398C5",
"^ 	c #65ACD5",
"/ 	c #8DD4F1",
"( 	c #74CEF0",
"_ 	c #52C1EA",
": 	c #51C0EA",
"< 	c #55C2EB",
"[ 	c #58C3EB",
"} 	c #5AC4EB",
"| 	c #75CEF0",
"1 	c #64ABD5",
"2 	c #559DC9",
"3 	c #78BCE1",
"4 	c #6ECAF1",
"5 	c #48BBEB",
"6 	c #41BAEA",
"7 	c #47BCEA",
"8 	c #4CBEEA",
"9 	c #4EBFEA",
"0 	c #51C1EA",
"a 	c #50C3EC",
"b 	c #4EC2EC",
"c 	c #4CBFEA",
"d 	c #6EC9F0",
"e 	c #77BCE1",
"f 	c #559CC8",
"g 	c #549CC9",
"h 	c #81C6EA",
"i 	c #52BAEC",
"j 	c #41B5EA",
"k 	c #41B6EA",
"l 	c #41B9EA",
"m 	c #42BAEA",
"n 	c #43BBEA",
"o 	c #46BCEA",
"p 	c #49BCEA",
"q 	c #49BDEA",
"r 	c #48BAE7",
"s 	c #4296C7",
"t 	c #4195C6",
"u 	c #43B8E7",
"v 	c #53BAEC",
"w 	c #82C7EA",
"x 	c #549CC8",
"y 	c #4F95C4",
"z 	c #74BBE5",
"A 	c #4CB5EB",
"B 	c #3FB0E9",
"C 	c #40B2E9",
"D 	c #41B4EA",
"E 	c #41B7EA",
"F 	c #42B8EA",
"G 	c #42B9EA",
"H 	c #41BBEB",
"I 	c #5FAAD2",
"J 	c #DCE0E3",
"K 	c #E1E3E5",
"L 	c #61AAD2",
"M 	c #3EB8EC",
"N 	c #4DB5EB",
"O 	c #74BBE4",
"P 	c #4F95C3",
"Q 	c #66AEDB",
"R 	c #59B7EE",
"S 	c #3EACE9",
"T 	c #3FAEE9",
"U 	c #40AFE9",
"V 	c #40B1E9",
"W 	c #40B3E9",
"X 	c #40B4EA",
"Y 	c #3AB5EB",
"Z 	c #C9D8E3",
"` 	c #FFFFFE",
" .	c #BBD7E5",
"..	c #38B1EA",
"+.	c #59B8EE",
"@.	c #65AEDB",
"#.	c #579ECE",
"$.	c #67BAEE",
"%.	c #3CA7E8",
"&.	c #3EAAE9",
"*.	c #3EABE9",
"=.	c #3FADE9",
"-.	c #38B1E9",
";.	c #D9EAF2",
">.	c #FFFFFF",
",.	c #FFFFFC",
"'.	c #98D3EE",
").	c #3AAEE9",
"!.	c #68BAEE",
"~.	c #579ECD",
"{.	c #458DBB",
"].	c #6DB5E8",
"^.	c #3FA5E8",
"/.	c #3DA6E8",
"(.	c #3EA8E9",
"_.	c #3EA9E9",
":.	c #3FACE9",
"<.	c #3FAFE9",
"[.	c #40B0E9",
"}.	c #64C0EE",
"|.	c #DAEFFA",
"1.	c #A8DAF5",
"2.	c #38ACE8",
"3.	c #3CA6E8",
"4.	c #6EB5E8",
"5.	c #468CBB",
"6.	c #5298CA",
"7.	c #55ABEA",
"8.	c #3AA0E8",
"9.	c #3CA3E8",
"0.	c #3DA5E8",
"a.	c #3EA8E8",
"b.	c #3FABE9",
"c.	c #3EADE9",
"d.	c #3CACE9",
"e.	c #34A9E9",
"f.	c #37AAE8",
"g.	c #55ACEA",
"h.	c #5198CB",
"i.	c #579FD5",
"j.	c #41A0E9",
"k.	c #3B9FE8",
"l.	c #3CA1E8",
"m.	c #3CA2E8",
"n.	c #3CA4E8",
"o.	c #3DA7E8",
"p.	c #3EACEB",
"q.	c #3DA6E4",
"r.	c #3B9EDC",
"s.	c #41A1E9",
"t.	c #579FD4",
"u.	c #529FDE",
"v.	c #3D9CE7",
"w.	c #3B9CE8",
"x.	c #3B9EE8",
"y.	c #3CA0E8",
"z.	c #3DA4E8",
"A.	c #3BA3E3",
"B.	c #4397CC",
"C.	c #6A9ABD",
"D.	c #85ABC8",
"E.	c #41A5E3",
"F.	c #52A0DE",
"G.	c #3F88BD",
"H.	c #4EA0E7",
"I.	c #3B98E7",
"J.	c #3A9AE7",
"K.	c #3A9BE8",
"L.	c #3B9DE8",
"M.	c #3DA4EA",
"N.	c #3794D3",
"O.	c #70A3C9",
"P.	c #C3D1DC",
"Q.	c #FEFAF8",
"R.	c #FCF5F1",
"S.	c #58ACE7",
"T.	c #4EA0E6",
"U.	c #3F86BB",
"V.	c #4A9DEA",
"W.	c #3995E7",
"X.	c #3998E7",
"Y.	c #3A99E7",
"Z.	c #3A9BE7",
"`.	c #3A9EE6",
" +	c #3384C2",
".+	c #ABC5D7",
"++	c #F1F0EF",
"@+	c #FEFEFE",
"#+	c #F6F2F1",
"$+	c #50A8E7",
"%+	c #3C9FE8",
"&+	c #3E86BC",
"*+	c #3D83B9",
"=+	c #479AEB",
"-+	c #3992E7",
";+	c #3996E7",
">+	c #3A97E7",
",+	c #3A9CE8",
"'+	c #4E9BD7",
")+	c #C9D9E5",
"!+	c #C1DCF1",
"~+	c #A5CBE9",
"{+	c #F6F6F7",
"]+	c #D2E1EB",
"^+	c #46A2E7",
"/+	c #4799EB",
"(+	c #3C83B9",
"_+	c #3A80B8",
":+	c #4596EA",
"<+	c #3890E7",
"[+	c #3892E7",
"}+	c #3894E7",
"|+	c #3A96E7",
"1+	c #3A98E7",
"2+	c #66B0EC",
"3+	c #6FB4EB",
"4+	c #3095E6",
"5+	c #87B7DE",
"6+	c #FAFAFA",
"7+	c #ACCFEB",
"8+	c #3D9BE7",
"9+	c #4496EA",
"0+	c #3A81B8",
"a+	c #377FB8",
"b+	c #4493E7",
"c+	c #378DE6",
"d+	c #3790E6",
"e+	c #3891E7",
"f+	c #3994E7",
"g+	c #3896E7",
"h+	c #3D98E4",
"i+	c #AECADF",
"j+	c #FFFEFE",
"k+	c #FAFAFB",
"l+	c #84B9E6",
"m+	c #3897E7",
"n+	c #4493E6",
"o+	c #387EB7",
"p+	c #367BB5",
"q+	c #428EDF",
"r+	c #388BE6",
"s+	c #378CE6",
"t+	c #388FE7",
"u+	c #3893E7",
"v+	c #3993E7",
"w+	c #4598E5",
"x+	c #D4DEE6",
"y+	c #EEF3F7",
"z+	c #61A7E5",
"A+	c #357BB6",
"B+	c #4088D0",
"C+	c #3789E5",
"D+	c #3689E5",
"E+	c #378AE6",
"F+	c #368CE6",
"G+	c #378EE6",
"H+	c #378FE6",
"I+	c #3891E8",
"J+	c #4C98DE",
"K+	c #F8F6F4",
"L+	c #E2EBF3",
"M+	c #3C92E6",
"N+	c #3A80C2",
"O+	c #3B89DF",
"P+	c #3586E1",
"Q+	c #3688E4",
"R+	c #368AE6",
"S+	c #368BE6",
"T+	c #378BE6",
"U+	c #358CE7",
"V+	c #76A8D7",
"W+	c #B6D0E9",
"X+	c #2E8AE6",
"Y+	c #3078B1",
"Z+	c #4289D7",
"`+	c #3382DB",
" @	c #3584DD",
".@	c #3585E0",
"+@	c #3587E2",
"@@	c #3087E7",
"#@	c #ADC7DC",
"$@	c #FFFFFD",
"%@	c #79AEE3",
"&@	c #3288E6",
"*@	c #3388E1",
"=@	c #3177B1",
"-@	c #286EA2",
";@	c #3B80C3",
">@	c #3B85D8",
",@	c #3380D7",
"'@	c #3482D9",
")@	c #3583DC",
"!@	c #3484DD",
"~@	c #3585DF",
"{@	c #3586E0",
"]@	c #3687E1",
"^@	c #2A7EDC",
"/@	c #EAEEF0",
"(@	c #3C88D9",
"_@	c #2C79C4",
":@	c #6798C3",
"<@	c #3385E4",
"[@	c #2870A5",
"}@	c #4185D0",
"|@	c #3580D2",
"1@	c #337ED3",
"2@	c #3380D5",
"3@	c #3481D7",
"4@	c #3481D9",
"5@	c #3482DA",
"6@	c #3282DC",
"7@	c #4688CD",
"8@	c #568DBA",
"9@	c #C2D1DD",
"0@	c #B7CFEA",
"a@	c #3081DB",
"b@	c #3483DB",
"c@	c #4185CF",
"d@	c #2870A7",
"e@	c #2B6FA9",
"f@	c #3D82CD",
"g@	c #327CCD",
"h@	c #327DCF",
"i@	c #337DD1",
"j@	c #337ED2",
"k@	c #337FD3",
"l@	c #2D7CD4",
"m@	c #7EABDA",
"n@	c #FAFCFF",
"o@	c #98BFEA",
"p@	c #317FD5",
"q@	c #3380D4",
"r@	c #3D81CD",
"s@	c #24679D",
"t@	c #2F72B0",
"u@	c #3D80C9",
"v@	c #3279C9",
"w@	c #317ACA",
"x@	c #317ACB",
"y@	c #327BCD",
"z@	c #2F7ACD",
"A@	c #5A96D7",
"B@	c #FAFBFD",
"C@	c #F6F9FD",
"D@	c #AFCBEC",
"E@	c #5C97D9",
"F@	c #2B78CE",
"G@	c #327CCF",
"H@	c #337DCE",
"I@	c #337CCD",
"J@	c #2F73AF",
"K@	c #23659C",
"L@	c #20649A",
"M@	c #2E70AB",
"N@	c #4483C9",
"O@	c #3378C4",
"P@	c #3177C4",
"Q@	c #3178C6",
"R@	c #3178C7",
"S@	c #3178C8",
"T@	c #4585CE",
"U@	c #4586CE",
"V@	c #347BCA",
"W@	c #3079C9",
"X@	c #3179C9",
"Y@	c #3179C7",
"Z@	c #4482C9",
"`@	c #2E72AB",
" #	c #20659B",
".#	c #1D5C91",
"+#	c #276CA6",
"@#	c #4380BF",
"##	c #3A7AC1",
"$#	c #3275C0",
"%#	c #3075C1",
"&#	c #3075C2",
"*#	c #3175C2",
"=#	c #3A7AC2",
"-#	c #437FBF",
";#	c #276CA5",
">#	c #1B5B90",
",#	c #21639A",
"'#	c #3272AC",
")#	c #407DBB",
"!#	c #437FC1",
"~#	c #3C7ABF",
"{#	c #3475BD",
"]#	c #3073BC",
"^#	c #2E71BB",
"/#	c #20639B",
"(#	c #1C5B92",
"_#	c #2567A2",
":#	c #3674AF",
"<#	c #457FBA",
"[#	c #4E84BF",
"}#	c #5387C3",
"|#	c #3675AF",
"1#	c #2468A3",
"2#	c #165286",
"3#	c #165B95",
"4#	c #165D97",
"5#	c #145D98",
"6#	c #165384",
"                                                                        ",
"                                                                        ",
"                                                                        ",
"                                                                        ",
"                        . +   @ # $ $ % &   * =                         ",
"                      - ; > , ' ) ! ! ) ' ~ > { ]                       ",
"                    ^ / ( _ : < [ } } [ < : _ | / 1                     ",
"                2 3 4 5 6 7 8 9 : : 0 a b c 7 6 5 d e f                 ",
"              g h i j k l m n o p q r s t u m l k j v w x               ",
"            y z A B C D k E F G G H I J K L M k D C B N O P             ",
"            Q R S T U V W X j k k Y Z ` `  ...W V U T S +.@.            ",
"          #.$.%.&.*.=.T B V C C W -.;.>.,.'.).B T =.*.&.%.!.~.          ",
"        {.].^./.(._.&.:.=.T <.[.[.B }.|.1.2.T =.:.&._.(.3.^.4.5.        ",
"        6.7.8.9.0./.a._.&.b.:.c.=.=.d.e.f.:.b.&._.a./.0.9.8.g.h.        ",
"        i.j.k.l.m.n.0./.o.(._._.&.p.q.r._._.(.o./.0.n.m.l.k.s.t.        ",
"        u.v.w.x.y.l.m.z.0.0./.o.A.B.C.D.E./.0.0.z.m.l.y.x.w.v.F.        ",
"      G.H.I.J.K.L.x.y.y.l.m.M.N.O.P.Q.R.S.9.m.l.y.y.x.L.K.J.I.T.G.      ",
"      U.V.W.X.Y.J.Z.L.L.k.`. +.+++@+>.#+$+%+k.k.L.L.Z.J.Y.X.W.V.&+      ",
"      *+=+-+W.;+>+Y.J.J.,+'+)+!+~+{+>.]+^+L.w.w.J.J.Y.>+;+W.-+/+(+      ",
"      _+:+<+[+}+W.;+|+1+X.2+3+4+5+6+` 7+8+J.Y.1+1+|+;+W.}+[+<+9+0+      ",
"      a+b+c+d+<+e+[+f+f+W.g+g+h+i+j+k+l+m+;+;+W.f+f+[+e+<+d+c+n+o+      ",
"      p+q+r+s+c+t+<+e+[+u+v+f+w+x+>.y+z+u+f+v+u+[+e+<+t+c+s+r+q+A+      ",
"        B+C+D+E+F+c+G+t+H+d+I+J+K+>.L+M+e+<+d+H+t+G+c+F+E+D+C+B+        ",
"        N+O+P+Q+D+R+S+T+s+c+U+V+,.>.W+X+G+c+c+s+T+S+R+D+Q+P+O+N+        ",
"        Y+Z+`+ @.@+@Q+D+R+R+@@#@>.$@%@&@*@R+R+R+D+Q++@.@ @`+Z+=@        ",
"        -@;@>@,@'@)@!@~@{@]@^@/@>.$@(@_@:@<@]@{@~@!@)@'@,@>@;@-@        ",
"          [@}@|@1@2@3@4@5@6@7@$@>.>.8@9@0@a@b@5@4@3@2@1@|@c@d@          ",
"            e@f@g@h@i@j@k@l@m@` >.>.n@o@p@2@q@k@j@i@h@g@r@e@            ",
"            s@t@u@v@w@x@y@z@A@B@C@D@E@F@G@H@I@y@x@w@v@u@J@K@            ",
"              L@M@N@O@P@Q@R@S@T@U@V@W@X@X@S@Y@Q@P@O@Z@`@ #              ",
"                .#+#@###$#%#%#&#&#*#*#&#&#%#%#$#=#-#;#>#                ",
"                    ,#'#)#!#~#{#]#^#^#]#{#~#!#)#'#/#                    ",
"                        (#_#:#<#[#}#}#[#<#|#1#(#                        ",
"                            2#3#4#5#5#4#3#6#                            ",
"                                                                        ",
"                                                                        "};
