/* XPM */
static char * media_playback_start_xpm[] = {
"16 16 77 1",
" 	c None",
".	c #92CA5B",
"+	c #9ED16A",
"@	c #92D249",
"#	c #ACE760",
"$	c #A2D666",
"%	c #A6D473",
"&	c #8DCF46",
"*	c #A3E44E",
"=	c #ABE858",
"-	c #ADE465",
";	c #A7DC68",
">	c #A0CE73",
",	c #89CC43",
"'	c #9FE14C",
")	c #A1E24E",
"!	c #A5E550",
"~	c #ACE85B",
"{	c #A5E05B",
"]	c #B5E676",
"^	c #85C840",
"/	c #99DD47",
"(	c #9BDE4A",
"_	c #9EE04C",
":	c #A0E24E",
"<	c #A4E353",
"[	c #A1DF55",
"}	c #A3D86B",
"|	c #81C53D",
"1	c #92D742",
"2	c #94D844",
"3	c #97DB47",
"4	c #99DC48",
"5	c #99DD49",
"6	c #98DB47",
"7	c #98DA48",
"8	c #9BD855",
"9	c #96CB67",
"0	c #7CC23B",
"a	c #8CD33E",
"b	c #8ED440",
"c	c #90D541",
"d	c #91D743",
"e	c #93D844",
"f	c #8FD541",
"g	c #8ED340",
"h	c #8DCE4A",
"i	c #78B54B",
"j	c #78BE38",
"k	c #85CD38",
"l	c #87CE3A",
"m	c #89D03C",
"n	c #8BD13D",
"o	c #89D03E",
"p	c #86CB3D",
"q	c #72B737",
"r	c #74BA35",
"s	c #7FC833",
"t	c #80C935",
"u	c #81CA36",
"v	c #84CC38",
"w	c #84CC3A",
"x	c #80C73A",
"y	c #7ABE39",
"z	c #6FB632",
"A	c #77C32D",
"B	c #78C42F",
"C	c #7EC735",
"D	c #75BC34",
"E	c #77BC37",
"F	c #69B22D",
"G	c #74C12D",
"H	c #77C035",
"I	c #6CB431",
"J	c #67AF32",
"K	c #5EA729",
"L	c #47911F",
"                ",
"                ",
"  .+            ",
"  @#$%          ",
"  &*=-;>        ",
"  ,')!~{]       ",
"  ^/(_:)<[}     ",
"  |1234546789   ",
"  0abcdeedfghi  ",
"  jklmnnnopq    ",
"  rstuvwxy      ",
"  zABCDE        ",
"  FGHI          ",
"  JK            ",
"  L             ",
"                "};
