/* XPM */
static char * system_shutdown_xpm[] = {
"36 36 405 2",
"  	c None",
". 	c #D73321",
"+ 	c #D93829",
"@ 	c #E6705C",
"# 	c #E97E6A",
"$ 	c #EA826E",
"% 	c #E97E69",
"& 	c #E6705B",
"* 	c #D93927",
"= 	c #D93321",
"- 	c #D63524",
"; 	c #E77A69",
"> 	c #F1AC9B",
", 	c #F3AC94",
"' 	c #F3A687",
") 	c #F3A480",
"! 	c #F7A47D",
"~ 	c #F7A37D",
"{ 	c #F1AC9A",
"] 	c #E77A68",
"^ 	c #D73525",
"/ 	c #DE5D4D",
"( 	c #F1AB9B",
"_ 	c #F19E88",
": 	c #EE8667",
"< 	c #ED8765",
"[ 	c #EF8C69",
"} 	c #E58C6B",
"| 	c #B78774",
"1 	c #E58D6B",
"2 	c #F19F88",
"3 	c #D54034",
"4 	c #E47B6F",
"5 	c #ED9483",
"6 	c #E97962",
"7 	c #E9775C",
"8 	c #EB7D61",
"9 	c #EC8263",
"0 	c #ED8464",
"a 	c #E2A390",
"b 	c #FBF9F9",
"c 	c #FAF9F8",
"d 	c #E2A38F",
"e 	c #ED9482",
"f 	c #D44034",
"g 	c #D34137",
"h 	c #E98D85",
"i 	c #E77364",
"j 	c #E66955",
"k 	c #E76D58",
"l 	c #E8725B",
"m 	c #E9765D",
"n 	c #EA7A5E",
"o 	c #EA7B5F",
"p 	c #F5BEAF",
"q 	c #FFFFFF",
"r 	c #E66956",
"s 	c #E98C83",
"t 	c #D14136",
"u 	c #CB3930",
"v 	c #E37B73",
"w 	c #E4685A",
"x 	c #E35D4E",
"y 	c #E46252",
"z 	c #E66654",
"A 	c #DF6956",
"B 	c #DC6D58",
"C 	c #E6705A",
"D 	c #E9725A",
"E 	c #F4BAAE",
"F 	c #E4685B",
"G 	c #E37A73",
"H 	c #CC3A30",
"I 	c #DA665E",
"J 	c #E46F66",
"K 	c #E0584C",
"L 	c #E25A4E",
"M 	c #E25B4D",
"N 	c #C55B50",
"O 	c #C89D98",
"P 	c #CDB3AF",
"Q 	c #CE7466",
"R 	c #E76954",
"S 	c #F3B5AB",
"T 	c #CE7467",
"U 	c #E56F66",
"V 	c #DA645D",
"W 	c #D04D47",
"X 	c #E57972",
"Y 	c #DD5248",
"Z 	c #DF554A",
"` 	c #DF574B",
" .	c #C05E55",
"..	c #E4D0CE",
"+.	c #FEFDFD",
"@.	c #E4C3C0",
"#.	c #E45A4A",
"$.	c #F2B1A8",
"%.	c #E4C4C1",
"&.	c #E4CFCE",
"*.	c #E0574B",
"=.	c #E57A72",
"-.	c #CF4945",
";.	c #BF2F2A",
">.	c #E0756F",
",.	c #DC5148",
"'.	c #DC5047",
").	c #DF5248",
"!.	c #CC5D55",
"~.	c #DFCECD",
"{.	c #F1B7B2",
"].	c #E15547",
"^.	c #F0ADA6",
"/.	c #DFCECC",
"(.	c #DC5149",
"_.	c #BF2E2C",
":.	c #C84542",
"<.	c #DD615B",
"[.	c #D94943",
"}.	c #DC4D46",
"|.	c #D14941",
"1.	c #D4B7B4",
"2.	c #F3BEBA",
"3.	c #E15E53",
"4.	c #E05649",
"5.	c #F0ABA6",
"6.	c #D4B6B4",
"7.	c #D14940",
"8.	c #DD615C",
"9.	c #C94542",
"0.	c #CE5150",
"a.	c #D84C47",
"b.	c #D84942",
"c.	c #DB4640",
"d.	c #C17975",
"e.	c #EEADA8",
"f.	c #DD5147",
"g.	c #DD5249",
"h.	c #DE5247",
"i.	c #EFA9A4",
"j.	c #EEAFAB",
"k.	c #C17774",
"l.	c #D84C48",
"m.	c #CE514F",
"n.	c #D15250",
"o.	c #D64642",
"p.	c #D74541",
"q.	c #CD433D",
"r.	c #F1DEDD",
"s.	c #F3CDCB",
"t.	c #D9433A",
"u.	c #DB4E47",
"v.	c #DC4F47",
"w.	c #DB4E45",
"x.	c #EDA7A3",
"y.	c #F3CECC",
"z.	c #F0DDDB",
"A.	c #CD423C",
"B.	c #D25250",
"C.	c #B82F32",
"D.	c #D65150",
"E.	c #D4413F",
"F.	c #D5413E",
"G.	c #CE6260",
"H.	c #FAF4F4",
"I.	c #FCFBFB",
"J.	c #DE615C",
"K.	c #D84943",
"L.	c #D94B44",
"M.	c #DA4942",
"N.	c #EDA6A3",
"O.	c #DE625D",
"P.	c #FCFCFC",
"Q.	c #F9F3F3",
"R.	c #CE615E",
"S.	c #D55251",
"T.	c #B72F31",
"U.	c #B52E33",
"V.	c #D64D4C",
"W.	c #D23D3C",
"X.	c #D33D3B",
"Y.	c #DC8685",
"Z.	c #F0C9C8",
"`.	c #D74C47",
" +	c #D64641",
".+	c #D74641",
"++	c #D74742",
"@+	c #D74640",
"#+	c #E99D9A",
"$+	c #F0CAC9",
"%+	c #DC8786",
"&+	c #B52E32",
"*+	c #B02C33",
"=+	c #D44848",
"-+	c #D13939",
";+	c #D03939",
">+	c #E49594",
",+	c #FEFFFF",
"'+	c #EBA9A7",
")+	c #D5423F",
"!+	c #D5433F",
"~+	c #D64340",
"{+	c #D6433F",
"]+	c #D9524E",
"^+	c #F3CAC8",
"/+	c #F3C9C7",
"(+	c #D4423F",
"_+	c #EBAAA8",
":+	c #E59897",
"<+	c #D44748",
"[+	c #B12D33",
"}+	c #AE2933",
"|+	c #D24345",
"1+	c #CE3638",
"2+	c #CF3536",
"3+	c #E49696",
"4+	c #E6A3A3",
"5+	c #D13C3B",
"6+	c #D33F3D",
"7+	c #D3403D",
"8+	c #D4403E",
"9+	c #D43F3D",
"0+	c #D23734",
"a+	c #D34344",
"b+	c #AF2B32",
"c+	c #AB2832",
"d+	c #CE3E41",
"e+	c #CD3336",
"f+	c #CD3334",
"g+	c #DD8788",
"h+	c #FDFDFD",
"i+	c #E1B0B0",
"j+	c #CE3C3D",
"k+	c #D03B3A",
"l+	c #D13B3A",
"m+	c #D13D3B",
"n+	c #E1B1B1",
"o+	c #DD8687",
"p+	c #CD3335",
"q+	c #AB2933",
"r+	c #A82731",
"s+	c #C8393F",
"t+	c #CB3034",
"u+	c #CB2F33",
"v+	c #D6696C",
"w+	c #FCF6F7",
"x+	c #E7D7D7",
"y+	c #CC4143",
"z+	c #CF3738",
"A+	c #D03839",
"B+	c #CC4243",
"C+	c #E7D8D8",
"D+	c #FCF6F6",
"E+	c #D6686A",
"F+	c #CC2F33",
"G+	c #A82632",
"H+	c #BC343D",
"I+	c #CA2E33",
"J+	c #C92D32",
"K+	c #CC3338",
"L+	c #F9EBEB",
"M+	c #BD6B6C",
"N+	c #CD2F33",
"O+	c #CE3437",
"P+	c #CE3536",
"Q+	c #CD3033",
"R+	c #BD6C6C",
"S+	c #F9EAEA",
"T+	c #CB3237",
"U+	c #B12D39",
"V+	c #C82E35",
"W+	c #C82930",
"X+	c #C62429",
"Y+	c #E19093",
"Z+	c #F1E9E9",
"`+	c #A83B3F",
" @	c #CD2D31",
".@	c #CB2F34",
"+@	c #CB3134",
"@@	c #A83C3F",
"#@	c #F2EAEA",
"$@	c #E18D90",
"%@	c #C6242A",
"&@	c #9F2434",
"*@	c #C5343E",
"=@	c #C5252E",
"-@	c #C7272F",
";@	c #C51F26",
">@	c #F7E5E5",
",@	c #E5D3D4",
"'@	c #AC4448",
")@	c #C32D33",
"!@	c #CA2C31",
"~@	c #AC4548",
"{@	c #E6D4D5",
"]@	c #F6E3E4",
"^@	c #C51E26",
"/@	c #A12335",
"(@	c #8F1B31",
"_@	c #B12D3E",
":@	c #C22B38",
"<@	c #C0232F",
"[@	c #C2232E",
"}@	c #CD4850",
"|@	c #F9EAEB",
"1@	c #E8DCDD",
"2@	c #BD8084",
"3@	c #AC3D42",
"4@	c #AD282E",
"5@	c #B4292F",
"6@	c #AB3D42",
"7@	c #BD8184",
"8@	c #E8DDDD",
"9@	c #CD474F",
"0@	c #B02D3E",
"a@	c #911B2F",
"b@	c #921C33",
"c@	c #BB3243",
"d@	c #BA2535",
"e@	c #BB2333",
"f@	c #BC2331",
"g@	c #CC535E",
"h@	c #FCF4F5",
"i@	c #FCFAFA",
"j@	c #F3EBEB",
"k@	c #DEC4C6",
"l@	c #CCA4A7",
"m@	c #FCF4F4",
"n@	c #CB525D",
"o@	c #BA3243",
"p@	c #921D33",
"q@	c #921F36",
"r@	c #B52D42",
"s@	c #B32136",
"t@	c #B52135",
"u@	c #B51D30",
"v@	c #BE3243",
"w@	c #F0D2D6",
"x@	c #FDF9FA",
"y@	c #F0D1D4",
"z@	c #BD3141",
"A@	c #B51E30",
"B@	c #931F35",
"C@	c #861930",
"D@	c #98223B",
"E@	c #B12B44",
"F@	c #AD1F38",
"G@	c #AE1F38",
"H@	c #AF1E35",
"I@	c #AF1A31",
"J@	c #C86272",
"K@	c #E0A5AE",
"L@	c #F1D6DA",
"M@	c #FCF5F6",
"N@	c #FCF5F5",
"O@	c #DFA5AE",
"P@	c #C86172",
"Q@	c #99223B",
"R@	c #861931",
"S@	c #831731",
"T@	c #92213C",
"U@	c #AF314F",
"V@	c #A9203D",
"W@	c #A81D3A",
"X@	c #A91D39",
"Y@	c #A91C38",
"Z@	c #AC213C",
"`@	c #B02C45",
" #	c #B3344C",
".#	c #B5384F",
"+#	c #B3334C",
"@#	c #AF314E",
"##	c #831732",
"$#	c #7A142F",
"%#	c #8A1F3A",
"&#	c #A63251",
"*#	c #A52647",
"=#	c #A21E3F",
"-#	c #A31C3C",
";#	c #A31B3C",
">#	c #A41C3C",
",#	c #78142E",
"'#	c #801836",
")#	c #912745",
"!#	c #9F2F51",
"~#	c #A42F52",
"{#	c #A2264B",
"]#	c #9E1F44",
"^#	c #9C1B3F",
"/#	c #9B183D",
"(#	c #9B183E",
"_#	c #9D1B40",
":#	c #801835",
"<#	c #771532",
"[#	c #841C3C",
"}#	c #922A4B",
"|#	c #9E3558",
"1#	c #A43C60",
"2#	c #A73F62",
"3#	c #91294C",
"4#	c #690F2E",
"5#	c #751033",
"6#	c #781133",
"7#	c #781033",
"8#	c #6A0F2E",
"                                                                        ",
"                                                                        ",
"                                                                        ",
"                                                                        ",
"                        . +   @ # $ $ % &   * =                         ",
"                      - ; > , ' ) ! ~ ) ' , { ] ^                       ",
"                    / ( _ : < [ } | | 1 [ < : 2 ( /                     ",
"                3 4 5 6 7 8 9 0 a b c d 0 9 8 7 6 e 4 f                 ",
"              g h i j k l m n o p q q p o n m l k r i s t               ",
"            u v w x y z A B C D E q q E D C B A z y x F G H             ",
"            I J K L M N O P Q R S q q S R T P O N M L K U V             ",
"          W X Y Z `  ...+.q @.#.$.q q $.#.%.q +.&. .*.Z Y =.-.          ",
"        ;.>.,.'.).!.~.q q q {.].^.q q ^.].{.q q q /.!.).'.(.>._.        ",
"        :.<.[.}.|.1.q q q 2.3.4.5.q q 5.4.3.2.q q q 6.7.}.[.8.9.        ",
"        0.a.b.c.d.q q q e.f.g.h.i.q q i.h.g.f.j.q q q k.c.b.l.m.        ",
"        n.o.p.q.r.q q s.t.u.v.w.x.q q x.w.v.u.t.y.q q z.A.p.o.B.        ",
"      C.D.E.F.G.H.q I.J.K.L.L.M.N.q q N.M.L.L.K.O.P.q Q.R.F.E.S.T.      ",
"      U.V.W.X.Y.I.q Z.`. +.+++@+#+q q #+@+++.+ +`.$+q I.%+X.W.V.&+      ",
"      *+=+-+;+>+,+q '+F.)+!+~+{+]+^+/+]+{+~+!+)+(+_+q q :+;+-+<+[+      ",
"      }+|+1+2+3+q q 4+5+6+6+7+8+9+0+0+9+8+7+6+6+5+4+q q 3+2+1+a+b+      ",
"      c+d+e+f+g+h+q i+j+k+l+5+5+m+5+5+m+5+5+l+k+j+n+q h+o+p+e+d+q+      ",
"      r+s+t+u+v+w+q x+y+z+z+A+A+;+;+;+;+A+A+z+z+B+C+q D+E+F+t+s+G+      ",
"        H+I+J+K+L+q ,+M+N+e+e+O+P+O+O+P+O+e+e+Q+R+,+q S+T+J+I+H+        ",
"        U+V+W+X+Y+q q Z+`+ @.@+@t+t+t+t++@.@ @@@#@q q $@%@W+V+U+        ",
"        &@*@=@-@;@>@q q ,@'@)@J+!@!@!@!@J+)@~@{@q q ]@^@-@=@*@/@        ",
"        (@_@:@<@[@}@|@q q 1@2@3@4@5@5@4@6@7@8@q q |@9@[@<@:@0@a@        ",
"          b@c@d@e@f@g@h@q q i@j@k@l@l@k@j@i@q q m@n@f@e@d@o@p@          ",
"            q@r@s@t@u@v@w@x@q q q q q q q q x@y@z@A@t@s@r@B@            ",
"            C@D@E@F@G@H@I@J@K@L@M@q q N@L@O@P@I@H@G@F@E@Q@R@            ",
"              S@T@U@V@W@X@Y@Z@`@ #.#.#+#`@Z@Y@X@W@V@@#T@##              ",
"                $#%#&#*#=#-#;#-#>#>#>#>#-#;#-#=#*#&#%#,#                ",
"                    '#)#!#~#{#]#^#/#(#_#]#{#~#!#)#:#                    ",
"                        <#[#}#|#1#2#2#1#|#3#[#<#                        ",
"                            4#5#6#7#7#6#5#8#                            ",
"                                                                        ",
"                                                                        "};
