/* XPM */
static char * window_close_xpm[] = {
"36 36 151 2",
"  	c None",
". 	c #575858",
"+ 	c #696A69",
"@ 	c #6C6D6C",
"# 	c #525252",
"$ 	c #5C5E5C",
"% 	c #A5A6A3",
"& 	c #A1A2A0",
"* 	c #626362",
"= 	c #6A6A69",
"- 	c #A5A6A4",
"; 	c #9D9F9C",
"> 	c #565656",
", 	c #4C4C4D",
"' 	c #686868",
") 	c #979897",
"! 	c #7B7D7A",
"~ 	c #787A77",
"{ 	c #9A9B99",
"] 	c #727272",
"^ 	c #4B4B4B",
"/ 	c #797979",
"( 	c #989997",
"_ 	c #757774",
": 	c #7F827E",
"< 	c #969795",
"[ 	c #6A6A6A",
"} 	c #4D4D4D",
"| 	c #4A494A",
"1 	c #959795",
"2 	c #777976",
"3 	c #737572",
"4 	c #747673",
"5 	c #919391",
"6 	c #767876",
"7 	c #4F4F4F",
"8 	c #8F908E",
"9 	c #626261",
"0 	c #4E4E4C",
"a 	c #4A4A4A",
"b 	c #707170",
"c 	c #9B9C9A",
"d 	c #727471",
"e 	c #959794",
"f 	c #6B6B6B",
"g 	c #4E4E4E",
"h 	c #6E706E",
"i 	c #949593",
"j 	c #767875",
"k 	c #585857",
"l 	c #4E4E4F",
"m 	c #636362",
"n 	c #717470",
"o 	c #70726F",
"p 	c #717370",
"q 	c #707270",
"r 	c #777776",
"s 	c #4E4E4D",
"t 	c #7A7A79",
"u 	c #919290",
"v 	c #6A6C6A",
"w 	c #6F716E",
"x 	c #888A87",
"y 	c #797978",
"z 	c #7A7A7A",
"A 	c #878886",
"B 	c #696A68",
"C 	c #595A58",
"D 	c #6D6F6C",
"E 	c #6E706D",
"F 	c #8C8D8B",
"G 	c #717170",
"H 	c #70716F",
"I 	c #8C8D8A",
"J 	c #6A6C69",
"K 	c #535353",
"L 	c #585958",
"M 	c #6C6E6B",
"N 	c #6C6E6C",
"O 	c #696B69",
"P 	c #545454",
"Q 	c #6B6C6A",
"R 	c #6B6D6A",
"S 	c #686B68",
"T 	c #565756",
"U 	c #686A67",
"V 	c #545554",
"W 	c #565655",
"X 	c #676966",
"Y 	c #686A68",
"Z 	c #555654",
"` 	c #787977",
" .	c #777975",
"..	c #555655",
"+.	c #848683",
"@.	c #666865",
"#.	c #848583",
"$.	c #535352",
"%.	c #5C5C5C",
"&.	c #7E807D",
"*.	c #636562",
"=.	c #656764",
"-.	c #646664",
";.	c #7E7F7D",
">.	c #7D7F7D",
",.	c #7C7E7B",
"'.	c #575757",
").	c #80827F",
"!.	c #626461",
"~.	c #616361",
"{.	c #626361",
"].	c #818180",
"^.	c #555555",
"/.	c #5B5B5B",
"(.	c #60625F",
"_.	c #616360",
":.	c #606260",
"<.	c #5F625E",
"[.	c #777977",
"}.	c #5F5F5F",
"|.	c #4C4C4C",
"1.	c #595A59",
"2.	c #5F615E",
"3.	c #575857",
"4.	c #797A79",
"5.	c #5E605D",
"6.	c #565856",
"7.	c #797B78",
"8.	c #5C5D5C",
"9.	c #5C5E5B",
"0.	c #5D5F5C",
"a.	c #545553",
"b.	c #535453",
"c.	c #5D5E5B",
"d.	c #5B5C5B",
"e.	c #525351",
"f.	c #5B5D5A",
"g.	c #545453",
"h.	c #535452",
"i.	c #525251",
"j.	c #525352",
"k.	c #595B59",
"l.	c #5A5C59",
"m.	c #545653",
"n.	c #535553",
"o.	c #515251",
"p.	c #585B57",
"q.	c #595B58",
"r.	c #595A57",
"s.	c #4F4F4E",
"t.	c #515250",
"                                                                        ",
"                                                                        ",
"                                                                        ",
"                                                                        ",
"                                                                        ",
"                                                                        ",
"                                                                        ",
"                                                                        ",
"                  . +                             @ #                   ",
"                $ % & *                         = - ; >                 ",
"            , ' ) ! ~ { ]                   ^ / ( _ : < [ }             ",
"          | @ 1 2 3 3 4 5 6 }             7 / 8 4 3 3 ~ < 9 0           ",
"        a b c d d d d d 3 e f g         g h i d d d d d j ; k l         ",
"          m n o p q q q o 3 5 r s     } t u p o q q q o p v #           ",
"            > o w w w w w w o x y g 7 z A w w w w w w w B #             ",
"              C D E E E E E E E F G H I E E E E E E E J K               ",
"                L M D M N N N M D x x M M N N N M D O P                 ",
"                  P Q R R R R R R M M R R R R R R S #                   ",
"                    T U J J J J J J J J J J J J U V                     ",
"                      W X U U Y Y Y Y Y Y U U X Z                       ",
"                        T ` X X X X X X X X  ...                        ",
"                      K +.o @.@.@.@.@.@.@.@.p #.$.                      ",
"                    %.&.D *.=.-.-.-.-.-.-.=.*.E ;.%.                    ",
"                  > >.U *.*.*.*.*.*.*.*.*.*.*.*.U ,...                  ",
"                '.).X !.!.!.!.!.!.~.{.!.!.!.!.!.!.X ].^.                ",
"            } /.` =.(._.:.:.:._._...T _._.:.:.:._.<.=.[.}.              ",
"          |.1.j !.2.2.2.2.2.2.2...    V 2.2.2.2.2.2.2.!._ 1.|.          ",
"        ^ 3.4.(.5.5.5.5.5.5.5.6.        T 5.5.5.5.5.5.5._.7.> g         ",
"        |.8.2.9.0.$ $ $ 0.0.a.            b.c.0.$ $ $ 0.9.(.d.|.        ",
"          g e.9.f.f.f.f.f.g.                h.f.f.f.f.f.9.i.}           ",
"              j.k.l.l.l.m.                    n.l.l.l.k.j.              ",
"                o.p.q.j.                        i.r.q.o.                ",
"                  s.o.                            t.7                   ",
"                                                                        ",
"                                                                        ",
"                                                                        "};
